<mxfile host="app.diagrams.net" modified="2023-05-10T03:59:44.111Z" agent="Mozilla/5.0 (Windows NT 10.0; Win64; x64) AppleWebKit/537.36 (KHTML, like Gecko) Chrome/112.0.0.0 Safari/537.36" etag="ipURyFYEADiC1LLJdmTm" version="21.2.9" type="github">
  <diagram name="第 1 页" id="3lxPqSQN4N0SiYeHz5GY">
    <mxGraphModel dx="1034" dy="438" grid="1" gridSize="10" guides="1" tooltips="1" connect="1" arrows="1" fold="1" page="1" pageScale="1" pageWidth="827" pageHeight="1169" math="0" shadow="0">
      <root>
        <mxCell id="0" />
        <mxCell id="1" parent="0" />
        <mxCell id="f0ReReLKwHnDOSBwPNf0-1" style="rounded=0;orthogonalLoop=1;jettySize=auto;html=1;exitX=1;exitY=0.5;exitDx=0;exitDy=0;entryX=0;entryY=0.5;entryDx=0;entryDy=0;" edge="1" parent="1" source="f0ReReLKwHnDOSBwPNf0-3" target="f0ReReLKwHnDOSBwPNf0-4">
          <mxGeometry relative="1" as="geometry" />
        </mxCell>
        <mxCell id="f0ReReLKwHnDOSBwPNf0-2" style="edgeStyle=none;shape=connector;rounded=0;orthogonalLoop=1;jettySize=auto;html=1;exitX=1;exitY=0.5;exitDx=0;exitDy=0;entryX=0;entryY=0.5;entryDx=0;entryDy=0;labelBackgroundColor=default;strokeColor=default;fontFamily=Helvetica;fontSize=11;fontColor=default;endArrow=classic;" edge="1" parent="1" source="f0ReReLKwHnDOSBwPNf0-3" target="f0ReReLKwHnDOSBwPNf0-7">
          <mxGeometry relative="1" as="geometry" />
        </mxCell>
        <mxCell id="f0ReReLKwHnDOSBwPNf0-3" value="&lt;font style=&quot;font-size: 16px;&quot;&gt;install.sh&lt;/font&gt;" style="rounded=1;whiteSpace=wrap;html=1;" vertex="1" parent="1">
          <mxGeometry x="80" y="280" width="120" height="60" as="geometry" />
        </mxCell>
        <mxCell id="f0ReReLKwHnDOSBwPNf0-4" value="① Docker load&lt;br&gt;上传镜像" style="rounded=1;whiteSpace=wrap;html=1;" vertex="1" parent="1">
          <mxGeometry x="260" y="242.5" width="120" height="60" as="geometry" />
        </mxCell>
        <mxCell id="f0ReReLKwHnDOSBwPNf0-5" style="edgeStyle=none;shape=connector;rounded=0;orthogonalLoop=1;jettySize=auto;html=1;exitX=1;exitY=0.5;exitDx=0;exitDy=0;entryX=0;entryY=0.5;entryDx=0;entryDy=0;labelBackgroundColor=default;strokeColor=default;fontFamily=Helvetica;fontSize=11;fontColor=default;endArrow=classic;" edge="1" parent="1" source="f0ReReLKwHnDOSBwPNf0-7" target="f0ReReLKwHnDOSBwPNf0-8">
          <mxGeometry relative="1" as="geometry" />
        </mxCell>
        <mxCell id="f0ReReLKwHnDOSBwPNf0-6" style="edgeStyle=none;shape=connector;rounded=0;orthogonalLoop=1;jettySize=auto;html=1;exitX=1;exitY=0.5;exitDx=0;exitDy=0;entryX=0;entryY=0.5;entryDx=0;entryDy=0;labelBackgroundColor=default;strokeColor=default;fontFamily=Helvetica;fontSize=11;fontColor=default;endArrow=classic;" edge="1" parent="1" source="f0ReReLKwHnDOSBwPNf0-7" target="f0ReReLKwHnDOSBwPNf0-9">
          <mxGeometry relative="1" as="geometry" />
        </mxCell>
        <mxCell id="f0ReReLKwHnDOSBwPNf0-7" value="② 创建、准备两个&lt;br&gt;helm chart里面的&lt;br&gt;参数及部署文件" style="rounded=1;whiteSpace=wrap;html=1;" vertex="1" parent="1">
          <mxGeometry x="260" y="317.5" width="120" height="60" as="geometry" />
        </mxCell>
        <mxCell id="f0ReReLKwHnDOSBwPNf0-8" value="heml 参数化&lt;br&gt;部署基础组件" style="rounded=1;whiteSpace=wrap;html=1;" vertex="1" parent="1">
          <mxGeometry x="440" y="277.5" width="120" height="60" as="geometry" />
        </mxCell>
        <mxCell id="f0ReReLKwHnDOSBwPNf0-9" value="heml 参数化&lt;br&gt;部署定时任务和API" style="rounded=1;whiteSpace=wrap;html=1;" vertex="1" parent="1">
          <mxGeometry x="440" y="357.5" width="120" height="60" as="geometry" />
        </mxCell>
        <mxCell id="f0ReReLKwHnDOSBwPNf0-10" value="&lt;font style=&quot;font-size: 14px;&quot;&gt;执行 一键部署&lt;/font&gt;" style="text;html=1;align=center;verticalAlign=middle;resizable=0;points=[];autosize=1;strokeColor=none;fillColor=none;fontSize=11;fontFamily=Helvetica;fontColor=default;" vertex="1" parent="1">
          <mxGeometry x="85" y="230" width="110" height="30" as="geometry" />
        </mxCell>
      </root>
    </mxGraphModel>
  </diagram>
</mxfile>
